<?xml version="1.0" standalone="no"?>
<!DOCTYPE svg PUBLIC "-//W3C//DTD SVG 20010904//EN"
 "http://www.w3.org/TR/2001/REC-SVG-20010904/DTD/svg10.dtd">
<svg version="1.0" xmlns="http://www.w3.org/2000/svg"
 width="512.000000pt" height="512.000000pt" viewBox="0 0 512.000000 512.000000"
 preserveAspectRatio="xMidYMid meet">

<g transform="translate(0.000000,512.000000) scale(0.100000,-0.100000)"
fill="#000000" stroke="none">
<path d="M2463 5110 c-23 -5 -56 -16 -75 -26 -18 -9 -458 -262 -978 -562 -693
-399 -958 -557 -993 -591 -29 -27 -63 -76 -85 -120 l-37 -75 0 -1176 0 -1176
37 -75 c22 -44 56 -93 85 -120 35 -34 300 -192 993 -591 520 -300 959 -553
977 -562 17 -9 63 -21 102 -28 84 -14 187 -1 253 33 23 12 463 264 977 561
688 397 949 552 984 587 29 27 63 76 85 120 l37 75 0 1176 0 1176 -37 75 c-22
44 -56 93 -85 120 -35 35 -294 189 -984 587 -515 297 -953 549 -975 560 -76
38 -185 50 -281 32z m243 -1041 c349 -35 664 -183 915 -429 112 -110 264 -310
247 -325 -14 -11 -650 -376 -652 -373 -2 2 -17 25 -35 51 -95 140 -251 249
-428 299 -110 31 -277 31 -387 -1 -265 -74 -463 -272 -537 -537 -32 -111 -32
-277 0 -388 74 -265 272 -463 537 -537 110 -32 277 -32 387 -1 177 50 333 159
428 299 18 26 33 49 35 51 4 5 654 -372 654 -380 0 -15 -104 -160 -167 -234
-38 -43 -104 -109 -147 -146 -536 -464 -1309 -499 -1883 -87 -110 80 -270 239
-346 345 -207 293 -310 665 -278 1008 35 370 180 684 436 941 211 212 456 348
745 414 168 39 305 47 476 30z m1204 -1344 l0 -85 85 0 85 0 0 -80 0 -80 -85
0 -85 0 0 -85 0 -85 -85 0 -84 0 -3 83 -3 82 -82 3 -83 3 0 79 0 79 83 3 82 3
3 83 3 82 84 0 85 0 0 -85z m630 0 l0 -85 85 0 85 0 0 -80 0 -80 -85 0 -85 0
0 -85 0 -85 -85 0 -85 0 0 85 0 85 -85 0 -85 0 0 80 0 80 85 0 85 0 0 85 0 85
85 0 85 0 0 -85z"/>
</g>
</svg>
