<?xml version="1.0" standalone="no"?>
<!DOCTYPE svg PUBLIC "-//W3C//DTD SVG 20010904//EN"
 "http://www.w3.org/TR/2001/REC-SVG-20010904/DTD/svg10.dtd">
<svg version="1.0" xmlns="http://www.w3.org/2000/svg"
 width="512.000000pt" height="512.000000pt" viewBox="0 0 512.000000 512.000000"
 preserveAspectRatio="xMidYMid meet">

<g transform="translate(0.000000,512.000000) scale(0.100000,-0.100000)"
fill="#000000" stroke="none">
<path d="M2433 4070 c-604 -52 -1120 -459 -1312 -1035 -217 -653 38 -1370 622
-1749 619 -403 1465 -286 1951 270 67 76 160 205 171 235 3 10 -101 74 -323
202 -185 107 -328 183 -330 177 -2 -6 -30 -44 -62 -84 -161 -202 -436 -314
-686 -278 -333 49 -587 290 -650 619 -67 353 142 718 484 843 172 63 351 63
521 1 144 -53 302 -176 371 -289 14 -23 28 -40 31 -39 3 1 151 85 327 187 218
126 320 189 317 199 -11 31 -104 159 -171 235 -176 202 -448 375 -706 450
-171 49 -383 71 -555 56z"/>
<path d="M3740 2725 l0 -85 -85 0 -85 0 0 -80 0 -80 85 0 85 0 0 -85 0 -85 85
0 85 0 0 85 0 85 85 0 85 0 0 80 0 80 -85 0 -85 0 0 85 0 85 -85 0 -85 0 0
-85z"/>
<path d="M4370 2725 l0 -85 -85 0 -85 0 0 -80 0 -80 85 0 85 0 0 -85 0 -85 85
0 85 0 0 85 0 85 85 0 85 0 0 80 0 80 -85 0 -85 0 0 85 0 85 -85 0 -85 0 0
-85z"/>
</g>
</svg>
